<?xml version="1.0" encoding="utf-8"?>
<!-- Generator: Adobe Illustrator 21.1.0, SVG Export Plug-In . SVG Version: 6.00 Build 0)  -->
<!DOCTYPE svg PUBLIC "-//W3C//DTD SVG 1.1//EN" "http://www.w3.org/Graphics/SVG/1.1/DTD/svg11.dtd">
<svg version="1.1" id="Layer_1" xmlns="http://www.w3.org/2000/svg" xmlns:xlink="http://www.w3.org/1999/xlink" x="0px" y="0px"
	 viewBox="0 0 802 802" style="enable-background:new 0 0 802 802;" xml:space="preserve">
<style type="text/css">
	.st0{fill:#057EC1;}
	.st1{fill:#FFFFFF;}
</style>
<circle class="st0" cx="401.2" cy="401.2" r="381"/>
<path class="st1" d="M401,1C180.1,1,1,180.1,1,401c0,220.9,179.1,400,400,400c220.9,0,400-179.1,400-400C801,180.1,621.9,1,401,1z
	 M536.2,573.8v0.1l-276-99.8l7.8,61.7h-43.6l-9.8-78.2l-45.3-16.4l-29.2,11.9V348.9l29.2,11.9l366.9-132.7V573.8z M623.2,254.7
	c5.7,8.6,10.9,17.6,15.6,26.9l-46.1,26.6c-4.5-9.4-9.8-18.4-15.6-26.9L623.2,254.7z M623.2,547.3l-46.1-26.6
	c5.8-8.6,11-17.5,15.6-26.9l46.1,26.6C634.1,529.6,628.9,538.6,623.2,547.3z M666.6,416.6h-53.3c0.4-5.1,0.6-10.3,0.6-15.5
	c0-5.2-0.3-10.4-0.6-15.6h53.3c0.3,5.2,0.5,10.3,0.5,15.6C667.1,406.2,666.9,411.4,666.6,416.6z"/>
</svg>
