<svg width="39" height="39" viewBox="0 0 39 39" fill="none" xmlns="http://www.w3.org/2000/svg">
<path d="M19.0509 0.482422C15.283 0.482422 11.5997 1.59974 8.4668 3.69308C5.3339 5.78642 2.89209 8.76176 1.45017 12.2429C0.00825609 15.724 -0.369018 19.5545 0.366066 23.25C1.10115 26.9455 2.91557 30.34 5.57989 33.0043C8.24421 35.6687 11.6388 37.4831 15.3343 38.2182C19.0298 38.9532 22.8603 38.576 26.3414 37.1341C29.8225 35.6921 32.7978 33.2503 34.8911 30.1174C36.9845 26.9845 38.1018 23.3012 38.1018 19.5333C38.1018 17.0315 37.6091 14.5542 36.6517 12.2429C35.6943 9.93149 34.291 7.83134 32.522 6.0623C30.7529 4.29326 28.6527 2.88998 26.3414 1.93258C24.03 0.975188 21.5527 0.482422 19.0509 0.482422Z" fill="#057EC1"/>
<path d="M25.4902 27.7684V27.7743L12.3439 23.0175L12.7143 25.9574H10.6375L10.1671 22.2308L8.01038 21.4511L6.61914 22.0179V17.0553L8.01038 17.6221L25.4878 11.2988L25.4902 27.7684Z" fill="white"/>
<path d="M29.6363 12.5703C29.9085 12.9831 30.1564 13.4115 30.3784 13.8533L28.1805 15.1222C27.9647 14.677 27.7168 14.2482 27.4385 13.8392L29.6363 12.5703Z" fill="white"/>
<path d="M29.6364 26.503L27.4385 25.2342C27.7168 24.8252 27.9649 24.3964 28.1806 23.9512L30.3773 25.22C30.1555 25.6618 29.9082 26.0902 29.6364 26.503Z" fill="white"/>
<path d="M31.7038 20.2778H29.1626C29.1802 20.0332 29.1932 19.7863 29.1932 19.537C29.1932 19.2877 29.1814 19.0407 29.1626 18.7949H31.7038C31.7179 19.0407 31.7274 19.2877 31.7274 19.537C31.7274 19.7863 31.7191 20.0321 31.7038 20.2778Z" fill="white"/>
</svg>
