<svg width="39" height="39" viewBox="0 0 39 39" fill="none" xmlns="http://www.w3.org/2000/svg">
<path d="M19.2931 38.6644C29.9485 38.6644 38.5863 30.0266 38.5863 19.3713C38.5863 8.71596 29.9485 0.078125 19.2931 0.078125C8.63784 0.078125 0 8.71596 0 19.3713C0 30.0266 8.63784 38.6644 19.2931 38.6644Z" fill="#EF5350"/>
<path d="M31.3803 15.5057L30.0867 10.2256C29.9578 9.6998 29.6557 9.2327 29.2291 8.89949C28.8024 8.56628 28.2761 8.38634 27.7347 8.38869H10.6136C10.0741 8.38871 9.55018 8.56973 9.12569 8.90276C8.7012 9.23578 8.40064 9.70157 8.2722 10.2256L6.97865 15.5057C6.82976 16.1055 6.82131 16.7315 6.95389 17.335C7.08647 17.9386 7.35653 18.5034 7.74307 18.9855C7.85195 19.1092 7.9673 19.2269 8.08874 19.3383V27.7242C8.09711 28.3717 8.36168 28.9895 8.82452 29.4425C9.28735 29.8954 9.9108 30.1465 10.5583 30.1408H27.8123C28.4599 30.1465 29.0833 29.8954 29.5462 29.4425C30.009 28.9895 30.2735 28.3717 30.2819 27.7242V19.3383C30.4031 19.2317 30.5185 19.1186 30.6276 18.9996C31.0171 18.5168 31.289 17.95 31.4217 17.344C31.5543 16.738 31.5442 16.1095 31.392 15.5081M27.7065 10.796L29.0001 16.0761C29.0619 16.3191 29.0662 16.5731 29.0127 16.8181C28.9592 17.063 28.8494 17.2922 28.692 17.4873C28.5556 17.6646 28.3801 17.8082 28.1792 17.9067C27.9783 18.0052 27.7574 18.0561 27.5336 18.0553C27.158 18.0511 26.7969 17.9088 26.5195 17.6555C26.2421 17.4021 26.0677 17.0555 26.0296 16.6817L25.3145 10.8089L27.7065 10.796ZM20.4225 10.8077H22.838L23.5035 16.269C23.5343 16.5012 23.5138 16.7374 23.4435 16.9609C23.3732 17.1843 23.2548 17.3897 23.0966 17.5626C22.9498 17.7274 22.7681 17.8574 22.5646 17.943C22.3612 18.0287 22.1412 18.0678 21.9207 18.0576C21.5118 18.0456 21.1243 17.8725 20.8426 17.576C20.5608 17.2795 20.4077 16.8837 20.4166 16.4748L20.4225 10.8077ZM14.8636 16.269L15.541 10.8077H17.9565V16.4748C17.9585 16.6838 17.9187 16.8911 17.8395 17.0846C17.7602 17.278 17.6431 17.4536 17.4949 17.6011C17.3468 17.7486 17.1706 17.865 16.9769 17.9434C16.7831 18.0218 16.5755 18.0606 16.3665 18.0576C16.1593 18.0556 15.9548 18.0105 15.7659 17.9253C15.5771 17.8401 15.4079 17.7166 15.2693 17.5626C15.1161 17.3866 15.0008 17.1808 14.9308 16.9582C14.8608 16.7356 14.8375 16.501 14.8624 16.269M9.37763 16.0761L10.623 10.8077H13.0514L12.3365 16.6806C12.2977 17.0521 12.1249 17.3968 11.8505 17.6502C11.576 17.9037 11.2188 18.0485 10.8453 18.0576C10.6232 18.0588 10.4038 18.008 10.2047 17.9094C10.0056 17.8108 9.83237 17.667 9.69868 17.4896C9.53614 17.2973 9.42215 17.0687 9.36629 16.8232C9.31042 16.5776 9.3143 16.3222 9.37763 16.0784M10.5607 27.7265V20.4355C10.6543 20.4536 10.7489 20.4657 10.8441 20.4719C11.3573 20.472 11.8654 20.3706 12.3393 20.1737C12.8131 19.9767 13.2434 19.688 13.6053 19.3242C13.9809 19.6936 14.4257 19.9852 14.9143 20.1821C15.4029 20.3791 15.9256 20.4776 16.4524 20.4719C17.4799 20.4694 18.4659 20.066 19.2006 19.3477C19.9617 20.0717 20.9726 20.4744 22.023 20.4719C23.0578 20.4654 24.0487 20.0533 24.783 19.3242C25.1449 19.688 25.5751 19.9767 26.049 20.1737C26.5229 20.3706 27.031 20.472 27.5442 20.4719C27.6393 20.4657 27.734 20.4536 27.8276 20.4355V27.7265H10.5607Z" fill="white"/>
</svg>
