<svg width="39" height="40" viewBox="0 0 39 40" fill="none" xmlns="http://www.w3.org/2000/svg">
<path d="M19.4037 0.685547C15.566 0.685547 11.8145 1.82355 8.62358 3.95566C5.43266 6.08776 2.94564 9.11821 1.47702 12.6638C0.00839824 16.2093 -0.375847 20.1108 0.372848 23.8747C1.12154 27.6387 2.96956 31.0961 5.68321 33.8097C8.39686 36.5234 11.8543 38.3714 15.6182 39.1201C19.3822 39.8688 23.2836 39.4845 26.8292 38.0159C30.3747 36.5473 33.4052 34.0603 35.5373 30.8694C37.6694 27.6784 38.8074 23.9269 38.8074 20.0892C38.8074 14.9431 36.7631 10.0077 33.1242 6.36876C29.4853 2.72986 24.5499 0.685547 19.4037 0.685547Z" fill="#47B75D"/>
<path d="M28.7178 17.8186C28.0263 26.8348 19.1735 33.0675 19.1735 33.0675C19.1735 33.0675 10.3231 26.8348 9.63393 17.8186C9.58968 17.4545 9.56728 17.0881 9.56689 16.7214C9.59488 14.1915 10.6195 11.7748 12.4184 9.99567C14.2173 8.21658 16.6452 7.21875 19.1753 7.21875C21.7053 7.21875 24.1332 8.21658 25.9321 9.99567C27.731 11.7748 28.7556 14.1915 28.7836 16.7214C28.7808 17.0881 28.7596 17.4543 28.7178 17.8186Z" fill="white"/>
<path d="M19.1909 10.2441C17.9078 10.2437 16.6532 10.6237 15.586 11.3362C14.5189 12.0488 13.6869 13.0617 13.1955 14.2471C12.704 15.4324 12.575 16.7368 12.8249 17.9954C13.0748 19.2541 13.6923 20.4103 14.5993 21.318C15.5063 22.2257 16.6621 22.844 17.9205 23.0948C19.179 23.3456 20.4835 23.2176 21.6692 22.727C22.8549 22.2363 23.8685 21.4051 24.5818 20.3385C25.295 19.2718 25.676 18.0176 25.6765 16.7344C25.6765 15.0139 24.9933 13.3638 23.7772 12.1467C22.561 10.9297 20.9114 10.2454 19.1909 10.2441Z" fill="#47B75D"/>
</svg>
