<svg width="39" height="40" viewBox="0 0 39 40" fill="none" xmlns="http://www.w3.org/2000/svg">
<path d="M19.4037 0.572266C15.566 0.572266 11.8145 1.71027 8.62359 3.84238C5.43267 5.97448 2.94565 9.00492 1.47703 12.5505C0.00840735 16.096 -0.37585 19.9975 0.372845 23.7614C1.12154 27.5254 2.96956 30.9828 5.68322 33.6964C8.39687 36.4101 11.8543 38.2581 15.6182 39.0068C19.3822 39.7555 23.2836 39.3713 26.8292 37.9026C30.3747 36.434 33.4052 33.947 35.5373 30.7561C37.6694 27.5651 38.8074 23.8136 38.8074 19.976C38.8074 14.8298 36.7631 9.89437 33.1242 6.25548C29.4853 2.61658 24.5499 0.572266 19.4037 0.572266Z" fill="#F7CB16"/>
<path d="M27.0322 30.4761L19.4036 24.9349L11.7739 30.4761L14.688 21.5081L7.06055 15.9669H16.4896L19.4025 7L22.3166 15.9669H31.7444L24.1217 21.5081L27.0322 30.4761Z" fill="white"/>
</svg>
