<svg width="39" height="39" viewBox="0 0 39 39" fill="none" xmlns="http://www.w3.org/2000/svg">
<path d="M38.1018 19.4298C38.1018 15.6619 36.9845 11.9786 34.8912 8.8457C32.7978 5.7128 29.8225 3.271 26.3414 1.82908C22.8603 0.387161 19.0298 0.00988942 15.3343 0.744972C11.6388 1.48006 8.24421 3.29448 5.57989 5.95879C2.91557 8.62311 1.10115 12.0177 0.366066 15.7132C-0.369018 19.4087 0.00825609 23.2392 1.45017 26.7203C2.89209 30.2014 5.3339 33.1767 8.4668 35.2701C11.5997 37.3634 15.283 38.4807 19.0509 38.4807C24.1035 38.4807 28.9492 36.4736 32.522 32.9008C36.0947 29.3281 38.1018 24.4824 38.1018 19.4298Z" fill="#32A9E0"/>
<path d="M21.1584 25.6956C20.4517 26.5169 19.5381 27.1341 18.5124 27.4831C16.0658 28.282 13.4304 28.294 10.9767 27.5172C9.92371 28.0801 8.78426 28.4636 7.60517 28.652C8.16173 27.972 8.57206 27.1846 8.81055 26.3388C8.5484 26.1225 8.31172 25.8771 8.10499 25.6074C7.53537 24.8768 7.22359 23.9783 7.2183 23.052C7.21404 22.0711 7.56536 21.1218 8.20727 20.3801C8.80915 19.6839 9.56936 19.1423 10.424 18.8008C10.6859 19.7086 11.1305 20.5534 11.7305 21.2833C12.8214 22.5641 14.2371 23.5276 15.8288 24.0727C17.6309 24.6871 19.5251 24.9878 21.4288 24.9617C21.4994 24.9617 21.5688 24.9559 21.6393 24.9547C21.5023 25.2174 21.3393 25.4656 21.1525 25.6956" fill="white"/>
<path d="M30.7878 24.3645C30.7878 24.3645 27.4104 23.7577 26.3074 22.8581C23.0467 23.8895 19.5449 23.8735 16.2939 22.8122C14.9303 22.3493 13.7157 21.5295 12.7765 20.4379C11.9532 19.453 11.5042 18.209 11.5088 16.9253C11.5071 15.9553 11.7536 15.0011 12.225 14.1534C12.6964 13.3057 13.3769 12.5928 14.2018 12.0826C16.442 10.7213 19.0412 10.0688 21.6587 10.2104C23.282 10.2013 24.8945 10.4751 26.4238 11.0195C27.8013 11.4656 29.0311 12.2787 29.9811 13.3715C30.8338 14.3571 31.3005 15.6184 31.2947 16.9217C31.2881 18.1522 30.8746 19.3459 30.1187 20.3168C29.8454 20.6743 29.533 21.0001 29.1873 21.2882C29.504 22.4118 30.0493 23.4579 30.789 24.361" fill="white"/>
</svg>
