<?xml version="1.0" encoding="utf-8"?>
<!-- Generator: Adobe Illustrator 21.0.0, SVG Export Plug-In . SVG Version: 6.00 Build 0)  -->
<svg id="Layer_1" data-name="Layer 1" xmlns="http://www.w3.org/2000/svg" viewBox="0 0 800 800">
    <defs>
        <style>.cls-1{fill:#7f509f;}</style>
    </defs>
    <path class="cls-1"
          d="M400.08-.23c-220.9,0-400,179.09-400,400s179.1,400,400,400,400-179.08,400-400S621-.23,400.08-.23ZM666.14,603.89a8.76,8.76,0,0,1-8.74,8.74H142.77a8.76,8.76,0,0,1-8.74-8.74V195.68a8.76,8.76,0,0,1,8.74-8.74H657.4a8.76,8.76,0,0,1,8.74,8.74Z"
          transform="translate(-0.08 0.23)"/>
    <rect class="cls-1" x="187.16" y="346.81" width="425.69" height="212.84"/>
    <rect class="cls-1" x="187.16" y="240.38" width="319.27" height="53.21"/>
    <rect class="cls-1" x="559.63" y="240.38" width="53.21" height="53.21"/>
</svg>
